# https://github.com/mikedh/trimesh
v 0.00983416 -6.44269562 -1.02152526
v 0.00983416 -6.44269562 -1.02152526
v 0.00983416 -6.44269562 -1.02152526
v 0.00983416 -6.44269562 -1.02152526
v 0.00983416 5.96702194 -1.02152526
v 0.00983416 5.96702194 -1.02152526
v 0.00983416 5.96702194 -1.02152526
v 0.00983416 5.96702194 -1.02152526
v 0.50983417 -6.44269562 -0.88755065
v 0.50983417 -6.44269562 -0.88755065
v 0.50983417 -6.44269562 -0.88755065
v 0.50983417 5.96702194 -0.88755065
v 0.50983417 5.96702194 -0.88755065
v 0.50983417 5.96702194 -0.88755065
v 0.50983417 5.96702194 -0.88755065
v 0.87585956 -6.44269562 -0.52152526
v 0.87585956 -6.44269562 -0.52152526
v 0.87585956 -6.44269562 -0.52152526
v 0.87585956 -6.44269562 -0.52152526
v 0.87585956 5.96702194 -0.52152526
v 0.87585956 5.96702194 -0.52152526
v 0.87585956 5.96702194 -0.52152526
v 0.87585956 5.96702194 -0.52152526
v 1.00983417 -6.44269562 -0.02152524
v 1.00983417 5.96702194 -0.02152524
v 1.00983417 5.96702194 -0.02152524
v 1.00983417 5.96702194 -0.02152524
v 1.00983417 5.96702194 -0.02152524
v 0.87585956 -6.44269562 0.47847477
v 0.87585956 -6.44269562 0.47847477
v 0.87585956 -6.44269562 0.47847477
v 0.87585956 -6.44269562 0.47847477
v 0.87585956 5.96702194 0.47847477
v 0.87585956 5.96702194 0.47847477
v 0.87585956 5.96702194 0.47847477
v 0.87585956 5.96702194 0.47847477
v 0.50983417 -6.44269562 0.84450012
v 0.50983417 -6.44269562 0.84450012
v 0.50983417 -6.44269562 0.84450012
v 0.50983417 5.96702194 0.84450012
v 0.50983417 5.96702194 0.84450012
v 0.50983417 5.96702194 0.84450012
v 0.50983417 5.96702194 0.84450012
v 0.00983416 -6.44269562 0.97847474
v 0.00983416 -6.44269562 0.97847474
v 0.00983416 -6.44269562 0.97847474
v 0.00983416 -6.44269562 0.97847474
v 0.00983416 5.96702194 0.97847474
v 0.00983416 5.96702194 0.97847474
v 0.00983416 5.96702194 0.97847474
v 0.00983416 5.96702194 0.97847474
v -0.49016583 -6.44269562 0.84450012
v -0.49016583 5.96702194 0.84450012
v -0.49016583 5.96702194 0.84450012
v -0.49016583 5.96702194 0.84450012
v -0.49016583 5.96702194 0.84450012
v -0.85619122 -6.44269562 0.47847477
v -0.85619122 -6.44269562 0.47847477
v -0.85619122 -6.44269562 0.47847477
v -0.85619122 -6.44269562 0.47847477
v -0.85619122 5.96702194 0.47847477
v -0.85619122 5.96702194 0.47847477
v -0.85619122 5.96702194 0.47847477
v -0.85619122 5.96702194 0.47847477
v -0.99016583 -6.44269562 -0.02152524
v -0.99016583 -6.44269562 -0.02152524
v -0.99016583 -6.44269562 -0.02152524
v -0.99016583 5.96702194 -0.02152524
v -0.99016583 5.96702194 -0.02152524
v -0.99016583 5.96702194 -0.02152524
v -0.99016583 5.96702194 -0.02152524
v -0.85619122 -6.44269562 -0.52152526
v -0.85619122 -6.44269562 -0.52152526
v -0.85619122 -6.44269562 -0.52152526
v -0.85619122 -6.44269562 -0.52152526
v -0.85619122 5.96702194 -0.52152526
v -0.85619122 5.96702194 -0.52152526
v -0.85619122 5.96702194 -0.52152526
v -0.85619122 5.96702194 -0.52152526
v -0.49016583 -6.44269562 -0.88755065
v -0.49016583 5.96702194 -0.88755065
v -0.49016583 5.96702194 -0.88755065
v -0.49016583 5.96702194 -0.88755065
v -0.49016583 5.96702194 -0.88755065
v 0.00983416 7.54817581 -0.90007794
v 0.00983416 7.54817581 -0.90007794
v 0.00983416 7.54817581 -0.90007794
v 0.00983416 7.54817581 -0.90007794
v 0.44911051 7.54817581 -0.78237420
v 0.44911051 7.54817581 -0.78237420
v 0.44911051 7.54817581 -0.78237420
v 0.44911051 7.54817581 -0.78237420
v 0.77068311 7.54817581 -0.46080157
v 0.77068311 7.54817581 -0.46080157
v 0.77068311 7.54817581 -0.46080157
v 0.77068311 7.54817581 -0.46080157
v 0.88838685 7.54817581 -0.02152524
v 0.88838685 7.54817581 -0.02152524
v 0.88838685 7.54817581 -0.02152524
v 0.88838685 7.54817581 -0.02152524
v 0.77068311 7.54817581 0.41775110
v 0.77068311 7.54817581 0.41775110
v 0.77068311 7.54817581 0.41775110
v 0.77068311 7.54817581 0.41775110
v 0.44911051 7.54817581 0.73932368
v 0.44911051 7.54817581 0.73932368
v 0.44911051 7.54817581 0.73932368
v 0.44911051 7.54817581 0.73932368
v 0.00983416 7.54817581 0.85702741
v 0.00983416 7.54817581 0.85702741
v 0.00983416 7.54817581 0.85702741
v 0.00983416 7.54817581 0.85702741
v -0.42944217 7.54817581 0.73932368
v -0.42944217 7.54817581 0.73932368
v -0.42944217 7.54817581 0.73932368
v -0.42944217 7.54817581 0.73932368
v -0.75101477 7.54817581 0.41775110
v -0.75101477 7.54817581 0.41775110
v -0.75101477 7.54817581 0.41775110
v -0.75101477 7.54817581 0.41775110
v -0.86871850 7.54817581 -0.02152524
v -0.86871850 7.54817581 -0.02152524
v -0.86871850 7.54817581 -0.02152524
v -0.86871850 7.54817581 -0.02152524
v -0.75101477 7.54817581 -0.46080157
v -0.75101477 7.54817581 -0.46080157
v -0.75101477 7.54817581 -0.46080157
v -0.75101477 7.54817581 -0.46080157
v -0.42944217 7.54817581 -0.78237420
v -0.42944217 7.54817581 -0.78237420
v -0.42944217 7.54817581 -0.78237420
v -0.42944217 7.54817581 -0.78237420
v 0.00983416 10.59920311 -0.36239794
v 0.00983416 10.59920311 -0.36239794
v 0.00983416 10.59920311 -0.36239794
v 0.00983416 10.59920311 -0.36239794
v 0.18027051 10.59920311 -0.31672964
v 0.18027051 10.59920311 -0.31672964
v 0.18027051 10.59920311 -0.31672964
v 0.18027051 10.59920311 -0.31672964
v 0.30503857 10.59920311 -0.19196159
v 0.30503857 10.59920311 -0.19196159
v 0.30503857 10.59920311 -0.19196159
v 0.30503857 10.59920311 -0.19196159
v 0.35070688 10.59920311 -0.02152524
v 0.35070688 10.59920311 -0.02152524
v 0.35070688 10.59920311 -0.02152524
v 0.35070688 10.59920311 -0.02152524
v 0.30503857 10.59920311 0.14891112
v 0.30503857 10.59920311 0.14891112
v 0.30503857 10.59920311 0.14891112
v 0.30503857 10.59920311 0.14891112
v 0.18027051 10.59920311 0.27367917
v 0.18027051 10.59920311 0.27367917
v 0.18027051 10.59920311 0.27367917
v 0.18027051 10.59920311 0.27367917
v 0.00983416 10.59920311 0.31934747
v 0.00983416 10.59920311 0.31934747
v 0.00983416 10.59920311 0.31934747
v 0.00983416 10.59920311 0.31934747
v -0.16060220 10.59920311 0.27367917
v -0.16060220 10.59920311 0.27367917
v -0.16060220 10.59920311 0.27367917
v -0.16060220 10.59920311 0.27367917
v -0.28537023 10.59920311 0.14891112
v -0.28537023 10.59920311 0.14891112
v -0.28537023 10.59920311 0.14891112
v -0.28537023 10.59920311 0.14891112
v -0.33103853 10.59920311 -0.02152524
v -0.33103853 10.59920311 -0.02152524
v -0.33103853 10.59920311 -0.02152524
v -0.33103853 10.59920311 -0.02152524
v -0.28537023 10.59920311 -0.19196159
v -0.28537023 10.59920311 -0.19196159
v -0.28537023 10.59920311 -0.19196159
v -0.28537023 10.59920311 -0.19196159
v -0.16060220 10.59920311 -0.31672964
v -0.16060220 10.59920311 -0.31672964
v -0.16060220 10.59920311 -0.31672964
v -0.16060220 10.59920311 -0.31672964
v 0.00983467 11.51993370 -0.02152524
v 0.00983467 11.51993370 -0.02152524
v 0.00983467 11.51993370 -0.02152524
v 0.00983467 11.51993370 -0.02152524
v 0.00983467 11.51993370 -0.02152524
v 0.00983467 11.51993370 -0.02152524
v 0.00983467 11.51993370 -0.02152524
v 0.00983467 11.51993370 -0.02152524
v 0.00983467 11.51993370 -0.02152524
v 0.00983467 11.51993370 -0.02152524
v 0.00983467 11.51993370 -0.02152524
v 0.00983467 11.51993370 -0.02152524
v -0.61501265 8.78595257 0.33923024
v -0.61501265 8.78595257 0.33923024
v -0.61501265 8.78595257 0.33923024
v -0.61501265 8.78595257 0.33923024
v 0.37058964 8.78595257 -0.64637208
v 0.37058964 8.78595257 -0.64637208
v 0.37058964 8.78595257 -0.64637208
v 0.37058964 8.78595257 -0.64637208
v 0.00983416 8.78595257 -0.74303621
v 0.00983416 8.78595257 -0.74303621
v 0.00983416 8.78595257 -0.74303621
v 0.00983416 8.78595257 -0.74303621
v -0.35092130 8.78595257 -0.64637208
v -0.35092130 8.78595257 -0.64637208
v -0.35092130 8.78595257 -0.64637208
v -0.35092130 8.78595257 -0.64637208
v 0.63468099 8.78595257 0.33923024
v 0.63468099 8.78595257 0.33923024
v 0.63468099 8.78595257 0.33923024
v 0.63468099 8.78595257 0.33923024
v -0.35092130 8.78595257 0.60332155
v -0.35092130 8.78595257 0.60332155
v -0.35092130 8.78595257 0.60332155
v -0.35092130 8.78595257 0.60332155
v 0.00983416 8.78595257 0.69998568
v 0.00983416 8.78595257 0.69998568
v 0.00983416 8.78595257 0.69998568
v 0.00983416 8.78595257 0.69998568
v -0.61501265 8.78595257 -0.38228071
v -0.61501265 8.78595257 -0.38228071
v -0.61501265 8.78595257 -0.38228071
v -0.61501265 8.78595257 -0.38228071
v -0.71167678 8.78595257 -0.02152524
v -0.71167678 8.78595257 -0.02152524
v -0.71167678 8.78595257 -0.02152524
v -0.71167678 8.78595257 -0.02152524
v 0.73134512 8.78595257 -0.02152524
v 0.73134512 8.78595257 -0.02152524
v 0.73134512 8.78595257 -0.02152524
v 0.73134512 8.78595257 -0.02152524
v 0.63468099 8.78595257 -0.38228071
v 0.63468099 8.78595257 -0.38228071
v 0.63468099 8.78595257 -0.38228071
v 0.63468099 8.78595257 -0.38228071
v 0.37058964 8.78595257 0.60332155
v 0.37058964 8.78595257 0.60332155
v 0.37058964 8.78595257 0.60332155
v 0.37058964 8.78595257 0.60332155
v 0.46652421 9.83286953 -0.28519535
v 0.46652421 9.83286953 -0.28519535
v 0.46652421 9.83286953 -0.28519535
v 0.46652421 9.83286953 -0.28519535
v -0.51750606 9.83286953 -0.02152524
v -0.51750606 9.83286953 -0.02152524
v -0.51750606 9.83286953 -0.02152524
v -0.51750606 9.83286953 -0.02152524
v 0.00983416 9.83286953 0.50581497
v 0.00983416 9.83286953 0.50581497
v 0.00983416 9.83286953 0.50581497
v 0.00983416 9.83286953 0.50581497
v 0.00983416 9.83286953 -0.54886550
v 0.00983416 9.83286953 -0.54886550
v 0.00983416 9.83286953 -0.54886550
v 0.00983416 9.83286953 -0.54886550
v 0.27350429 9.83286953 0.43516481
v 0.27350429 9.83286953 0.43516481
v 0.27350429 9.83286953 0.43516481
v 0.27350429 9.83286953 0.43516481
v -0.44685587 9.83286953 0.24214488
v -0.44685587 9.83286953 0.24214488
v -0.44685587 9.83286953 0.24214488
v -0.44685587 9.83286953 0.24214488
v 0.27350429 9.83286953 -0.47821528
v 0.27350429 9.83286953 -0.47821528
v 0.27350429 9.83286953 -0.47821528
v 0.27350429 9.83286953 -0.47821528
v -0.25383595 9.83286953 -0.47821528
v -0.25383595 9.83286953 -0.47821528
v -0.25383595 9.83286953 -0.47821528
v -0.25383595 9.83286953 -0.47821528
v 0.46652421 9.83286953 0.24214488
v 0.46652421 9.83286953 0.24214488
v 0.46652421 9.83286953 0.24214488
v 0.46652421 9.83286953 0.24214488
v -0.25383595 9.83286953 0.43516481
v -0.25383595 9.83286953 0.43516481
v -0.25383595 9.83286953 0.43516481
v -0.25383595 9.83286953 0.43516481
v -0.44685587 9.83286953 -0.28519535
v -0.44685587 9.83286953 -0.28519535
v -0.44685587 9.83286953 -0.28519535
v -0.44685587 9.83286953 -0.28519535
v 0.53717440 9.83286953 -0.02152524
v 0.53717440 9.83286953 -0.02152524
v 0.53717440 9.83286953 -0.02152524
v 0.53717440 9.83286953 -0.02152524
v 0.00983416 -2.59521484 -1.02152526
v 0.00983416 -2.59521484 -1.02152526
v 0.00983416 -2.59521484 -1.02152526
v 0.00983416 -2.59521484 -1.02152526
v 0.50983417 -2.59521484 -0.88755065
v 0.50983417 -2.59521484 -0.88755065
v 0.87585956 -2.59521484 -0.52152526
v 0.87585956 -2.59521484 -0.52152526
v 0.87585956 -2.59521484 -0.52152526
v 0.87585956 -2.59521484 -0.52152526
v 1.00983417 -1.37455845 -0.02152524
v 1.00983417 -1.37455845 -0.02152524
v 1.00983417 -1.37455845 -0.02152524
v 1.00983417 -1.37455845 -0.02152524
v 0.87585956 -2.59521484 0.47847477
v 0.87585956 -2.59521484 0.47847477
v 0.87585956 -2.59521484 0.47847477
v 0.87585956 -2.59521484 0.47847477
v 0.50983417 -2.59521484 0.84450012
v 0.50983417 -2.59521484 0.84450012
v 0.00983416 -2.59521484 0.97847474
v 0.00983416 -2.59521484 0.97847474
v 0.00983416 -2.59521484 0.97847474
v 0.00983416 -2.59521484 0.97847474
v -0.49016583 -1.37965679 0.84450012
v -0.49016583 -1.37965679 0.84450012
v -0.49016583 -1.37965679 0.84450012
v -0.49016583 -1.37965679 0.84450012
v -0.85619122 -2.59521484 0.47847477
v -0.85619122 -2.59521484 0.47847477
v -0.85619122 -2.59521484 0.47847477
v -0.85619122 -2.59521484 0.47847477
v -0.99016583 -2.59521484 -0.02152524
v -0.99016583 -2.59521484 -0.02152524
v -0.85619122 -2.59521484 -0.52152526
v -0.85619122 -2.59521484 -0.52152526
v -0.85619122 -2.59521484 -0.52152526
v -0.85619122 -2.59521484 -0.52152526
v -0.49016583 -1.41554070 -0.88755065
v -0.49016583 -1.41554070 -0.88755065
v -0.49016583 -1.41554070 -0.88755065
v -0.49016583 -1.41554070 -0.88755065
v 3.18960166 -7.99857330 -0.09878248
v 3.18960166 -7.99857330 -0.09878248
v 3.18960166 -7.99857330 -0.09878248
v 3.32357621 -7.99857330 -0.02152524
v 3.32357621 -7.99857330 -0.02152524
v 3.32357621 -7.99857330 -0.02152524
v 3.32357621 -7.99857330 -0.02152524
v 3.18960166 -7.99857330 0.05573201
v 3.18960166 -7.99857330 0.05573201
v 3.18960166 -7.99857330 0.05573201
v 3.18960166 -2.59521484 -0.09878248
v 3.18960166 -2.59521484 -0.09878248
v 3.18960166 -2.59521484 -0.09878248
v 3.32357621 -2.59521484 -0.02152524
v 3.32357621 -2.59521484 -0.02152524
v 3.32357621 -2.59521484 -0.02152524
v 3.32357621 -2.59521484 -0.02152524
v 3.18960166 -2.59521484 0.05573201
v 3.18960166 -2.59521484 0.05573201
v 3.18960166 -2.59521484 0.05573201
v -1.40690982 -7.99857330 2.66580224
v -1.40690982 -7.99857330 2.66580224
v -1.40690982 -7.99857330 2.66580224
v -1.66414607 -7.99857330 2.87789369
v -1.66414607 -7.99857330 2.87789369
v -1.66414607 -7.99857330 2.87789369
v -1.66414607 -7.99857330 2.87789369
v -1.61323082 -7.99857330 2.54668260
v -1.61323082 -7.99857330 2.54668260
v -1.61323082 -7.99857330 2.54668260
v -1.40690982 -2.59521484 2.66580224
v -1.40690982 -2.59521484 2.66580224
v -1.40690982 -2.59521484 2.66580224
v -1.66414607 -2.59521484 2.87789369
v -1.66414607 -2.59521484 2.87789369
v -1.66414607 -2.59521484 2.87789369
v -1.66414607 -2.59521484 2.87789369
v -1.61323082 -2.59521484 2.54668260
v -1.61323082 -2.59521484 2.54668260
v -1.61323082 -2.59521484 2.54668260
v -1.31688428 -7.99857330 -2.55381441
v -1.31688428 -7.99857330 -2.55381441
v -1.31688428 -7.99857330 -2.55381441
v -1.50434089 -7.99857330 -2.44558620
v -1.50434089 -7.99857330 -2.44558620
v -1.50434089 -7.99857330 -2.44558620
v -1.57147622 -7.99857330 -2.76043510
v -1.57147622 -7.99857330 -2.76043510
v -1.57147622 -7.99857330 -2.76043510
v -1.57147622 -7.99857330 -2.76043510
v -1.31688428 -2.59521484 -2.55381441
v -1.31688428 -2.59521484 -2.55381441
v -1.31688428 -2.59521484 -2.55381441
v -1.50434089 -2.59521484 -2.44558620
v -1.50434089 -2.59521484 -2.44558620
v -1.50434089 -2.59521484 -2.44558620
v -1.57147622 -2.59521484 -2.76043510
v -1.57147622 -2.59521484 -2.76043510
v -1.57147622 -2.59521484 -2.76043510
v -1.57147622 -2.59521484 -2.76043510
v 1.64367306 -2.59521484 -0.20902695
v 1.64367306 -2.59521484 -0.20902695
v 1.64367306 -2.59521484 -0.20902695
v 1.64367306 -2.59521484 -0.20902695
v 1.64367306 -6.44269562 -0.20902695
v 1.64367306 -6.44269562 -0.20902695
v 1.64367306 -6.44269562 -0.20902695
v 1.64367306 -6.44269562 -0.20902695
v 1.42709398 -1.79193997 -0.02152524
v 1.42709398 -1.79193997 -0.02152524
v 1.42709398 -1.79193997 -0.02152524
v 1.42709398 -1.79193997 -0.02152524
v 1.42709398 -6.44269562 -0.02152524
v 1.42709398 -6.44269562 -0.02152524
v 1.42709398 -6.44269562 -0.02152524
v 1.64367306 -6.44269562 0.19915621
v 1.64367306 -6.44269562 0.19915621
v 1.64367306 -6.44269562 0.19915621
v 1.64367306 -6.44269562 0.19915621
v 1.64367306 -2.59521484 0.19915621
v 1.64367306 -2.59521484 0.19915621
v 1.64367306 -2.59521484 0.19915621
v 1.64367306 -2.59521484 0.19915621
v -1.01941371 -2.59521484 -1.33058763
v -1.01941371 -2.59521484 -1.33058763
v -1.01941371 -2.59521484 -1.33058763
v -1.01941371 -2.59521484 -1.33058763
v -1.01941371 -6.44269562 -1.33058763
v -1.01941371 -6.44269562 -1.33058763
v -1.01941371 -6.44269562 -1.33058763
v -1.01941371 -6.44269562 -1.33058763
v -0.63203543 -2.59521484 -1.55424058
v -0.63203543 -2.59521484 -1.55424058
v -0.63203543 -2.59521484 -1.55424058
v -0.63203543 -2.59521484 -1.55424058
v -0.67597723 -1.84949994 -1.20938551
v -0.67597723 -1.84949994 -1.20938551
v -0.67597723 -1.84949994 -1.20938551
v -0.67597723 -1.84949994 -1.20938551
v -0.67597723 -6.44269562 -1.20938551
v -0.67597723 -6.44269562 -1.20938551
v -0.67597723 -6.44269562 -1.20938551
v -0.63203543 -6.44269562 -1.55424058
v -0.63203543 -6.44269562 -1.55424058
v -0.63203543 -6.44269562 -1.55424058
v -0.63203543 -6.44269562 -1.55424058
v -0.63872468 -6.44269562 1.58342981
v -0.63872468 -6.44269562 1.58342981
v -0.63872468 -6.44269562 1.58342981
v -0.63872468 -6.44269562 1.58342981
v -0.70333529 -6.44269562 1.21372044
v -0.70333529 -6.44269562 1.21372044
v -0.70333529 -6.44269562 1.21372044
v -1.03576410 -2.59521484 1.35419905
v -1.03576410 -2.59521484 1.35419905
v -1.03576410 -2.59521484 1.35419905
v -1.03576410 -2.59521484 1.35419905
v -0.70333529 -1.80099297 1.21372044
v -0.70333529 -1.80099297 1.21372044
v -0.70333529 -1.80099297 1.21372044
v -0.70333529 -1.80099297 1.21372044
v -1.03576410 -6.44269562 1.35419905
v -1.03576410 -6.44269562 1.35419905
v -1.03576410 -6.44269562 1.35419905
v -1.03576410 -6.44269562 1.35419905
v -0.63872468 -2.59521484 1.58342981
v -0.63872468 -2.59521484 1.58342981
v -0.63872468 -2.59521484 1.58342981
v -0.63872468 -2.59521484 1.58342981
v 0.00983416 -6.44269562 -0.92920637
v 0.00983416 -6.44269562 -0.92920637
v 0.00983416 -6.44269562 -0.92920637
v 0.00983416 -6.44269562 -0.92920637
v 0.46367472 -6.44269562 -0.80760014
v 0.46367472 -6.44269562 -0.80760014
v 0.46367472 -6.44269562 -0.80760014
v 0.79590905 -6.44269562 -0.47536579
v 0.79590905 -6.44269562 -0.47536579
v 0.79590905 -6.44269562 -0.47536579
v 0.79590905 -6.44269562 -0.47536579
v 0.91751528 -6.44269562 -0.02152524
v 0.91751528 -6.44269562 -0.02152524
v 0.91751528 -6.44269562 -0.02152524
v 0.79590905 -6.44269562 0.43231532
v 0.79590905 -6.44269562 0.43231532
v 0.79590905 -6.44269562 0.43231532
v 0.79590905 -6.44269562 0.43231532
v 0.46367472 -6.44269562 0.76454961
v 0.46367472 -6.44269562 0.76454961
v 0.46367472 -6.44269562 0.76454961
v 0.00983416 -6.44269562 0.88615584
v 0.00983416 -6.44269562 0.88615584
v 0.00983416 -6.44269562 0.88615584
v 0.00983416 -6.44269562 0.88615584
v -0.44400638 -6.44269562 0.76454961
v -0.44400638 -6.44269562 0.76454961
v -0.44400638 -6.44269562 0.76454961
v -0.77624071 -6.44269562 0.43231532
v -0.77624071 -6.44269562 0.43231532
v -0.77624071 -6.44269562 0.43231532
v -0.77624071 -6.44269562 0.43231532
v -0.89784694 -6.44269562 -0.02152524
v -0.89784694 -6.44269562 -0.02152524
v -0.89784694 -6.44269562 -0.02152524
v -0.77624071 -6.44269562 -0.47536579
v -0.77624071 -6.44269562 -0.47536579
v -0.77624071 -6.44269562 -0.47536579
v -0.77624071 -6.44269562 -0.47536579
v -0.44400638 -6.44269562 -0.80760014
v -0.44400638 -6.44269562 -0.80760014
v -0.44400638 -6.44269562 -0.80760014
v 0.00983415 -6.21826649 -0.92920637
v 0.00983415 -6.21826649 -0.92920637
v 0.00983415 -6.21826649 -0.92920637
v 0.00983415 -6.21826649 -0.92920637
v 0.46367472 -6.21826649 -0.80760014
v 0.46367472 -6.21826649 -0.80760014
v 0.46367472 -6.21826649 -0.80760014
v 0.79590905 -6.21826649 -0.47536579
v 0.79590905 -6.21826649 -0.47536579
v 0.79590905 -6.21826649 -0.47536579
v 0.79590905 -6.21826649 -0.47536579
v 0.91751528 -6.21826649 -0.02152524
v 0.91751528 -6.21826649 -0.02152524
v 0.91751528 -6.21826649 -0.02152524
v 0.79590905 -6.21826649 0.43231532
v 0.79590905 -6.21826649 0.43231532
v 0.79590905 -6.21826649 0.43231532
v 0.79590905 -6.21826649 0.43231532
v 0.46367472 -6.21826649 0.76454961
v 0.46367472 -6.21826649 0.76454961
v 0.46367472 -6.21826649 0.76454961
v 0.00983415 -6.21826649 0.88615584
v 0.00983415 -6.21826649 0.88615584
v 0.00983415 -6.21826649 0.88615584
v 0.00983415 -6.21826649 0.88615584
v -0.44400638 -6.21826649 0.76454961
v -0.44400638 -6.21826649 0.76454961
v -0.44400638 -6.21826649 0.76454961
v -0.77624071 -6.21826649 0.43231532
v -0.77624071 -6.21826649 0.43231532
v -0.77624071 -6.21826649 0.43231532
v -0.77624071 -6.21826649 0.43231532
v -0.89784694 -6.21826649 -0.02152524
v -0.89784694 -6.21826649 -0.02152524
v -0.89784694 -6.21826649 -0.02152524
v -0.77624071 -6.21826649 -0.47536579
v -0.77624071 -6.21826649 -0.47536579
v -0.77624071 -6.21826649 -0.47536579
v -0.77624071 -6.21826649 -0.47536579
v -0.44400638 -6.21826649 -0.80760014
v -0.44400638 -6.21826649 -0.80760014
v -0.44400638 -6.21826649 -0.80760014
v 0.00983415 -6.21826649 -0.76701593
v 0.00983415 -6.21826649 -0.76701593
v 0.00983415 -6.21826649 -0.76701593
v 0.00983415 -6.21826649 -0.76701593
v 0.38257951 -6.21826649 -0.66713911
v 0.38257951 -6.21826649 -0.66713911
v 0.38257951 -6.21826649 -0.66713911
v 0.65544802 -6.21826649 -0.39427057
v 0.65544802 -6.21826649 -0.39427057
v 0.65544802 -6.21826649 -0.39427057
v 0.65544802 -6.21826649 -0.39427057
v 0.75532484 -6.21826649 -0.02152524
v 0.75532484 -6.21826649 -0.02152524
v 0.75532484 -6.21826649 -0.02152524
v 0.65544802 -6.21826649 0.35122010
v 0.65544802 -6.21826649 0.35122010
v 0.65544802 -6.21826649 0.35122010
v 0.65544802 -6.21826649 0.35122010
v 0.38257951 -6.21826649 0.62408859
v 0.38257951 -6.21826649 0.62408859
v 0.38257951 -6.21826649 0.62408859
v 0.00983415 -6.21826649 0.72396541
v 0.00983415 -6.21826649 0.72396541
v 0.00983415 -6.21826649 0.72396541
v 0.00983415 -6.21826649 0.72396541
v -0.36291116 -6.21826649 0.62408859
v -0.36291116 -6.21826649 0.62408859
v -0.36291116 -6.21826649 0.62408859
v -0.63577968 -6.21826649 0.35122010
v -0.63577968 -6.21826649 0.35122010
v -0.63577968 -6.21826649 0.35122010
v -0.63577968 -6.21826649 0.35122010
v -0.73565650 -6.21826649 -0.02152524
v -0.73565650 -6.21826649 -0.02152524
v -0.73565650 -6.21826649 -0.02152524
v -0.63577968 -6.21826649 -0.39427057
v -0.63577968 -6.21826649 -0.39427057
v -0.63577968 -6.21826649 -0.39427057
v -0.63577968 -6.21826649 -0.39427057
v -0.36291116 -6.21826649 -0.66713911
v -0.36291116 -6.21826649 -0.66713911
v -0.36291116 -6.21826649 -0.66713911
v 0.00983415 -6.41635132 -0.76701593
v 0.00983415 -6.41635132 -0.76701593
v 0.00983415 -6.41635132 -0.76701593
v 0.00983415 -6.41635132 -0.76701593
v 0.38257951 -6.41635132 -0.66713911
v 0.38257951 -6.41635132 -0.66713911
v 0.38257951 -6.41635132 -0.66713911
v 0.65544802 -6.41635132 -0.39427057
v 0.65544802 -6.41635132 -0.39427057
v 0.65544802 -6.41635132 -0.39427057
v 0.65544802 -6.41635132 -0.39427057
v 0.75532484 -6.41635132 -0.02152524
v 0.75532484 -6.41635132 -0.02152524
v 0.75532484 -6.41635132 -0.02152524
v 0.65544802 -6.41635132 0.35122010
v 0.65544802 -6.41635132 0.35122010
v 0.65544802 -6.41635132 0.35122010
v 0.65544802 -6.41635132 0.35122010
v 0.38257951 -6.41635132 0.62408859
v 0.38257951 -6.41635132 0.62408859
v 0.38257951 -6.41635132 0.62408859
v 0.00983415 -6.41635132 0.72396541
v 0.00983415 -6.41635132 0.72396541
v 0.00983415 -6.41635132 0.72396541
v 0.00983415 -6.41635132 0.72396541
v -0.36291116 -6.41635132 0.62408859
v -0.36291116 -6.41635132 0.62408859
v -0.36291116 -6.41635132 0.62408859
v -0.63577968 -6.41635132 0.35122010
v -0.63577968 -6.41635132 0.35122010
v -0.63577968 -6.41635132 0.35122010
v -0.63577968 -6.41635132 0.35122010
v -0.73565650 -6.41635132 -0.02152524
v -0.73565650 -6.41635132 -0.02152524
v -0.73565650 -6.41635132 -0.02152524
v -0.63577968 -6.41635132 -0.39427057
v -0.63577968 -6.41635132 -0.39427057
v -0.63577968 -6.41635132 -0.39427057
v -0.63577968 -6.41635132 -0.39427057
v -0.36291116 -6.41635132 -0.66713911
v -0.36291116 -6.41635132 -0.66713911
v -0.36291116 -6.41635132 -0.66713911
v 0.00983415 -6.41635132 -0.64286578
v 0.00983415 -6.41635132 -0.64286578
v 0.00983415 -6.41635132 -0.64286578
v 0.00983415 -6.41635132 -0.64286578
v 0.32050443 -6.41635132 -0.55962193
v 0.32050443 -6.41635132 -0.55962193
v 0.32050443 -6.41635132 -0.55962193
v 0.54793084 -6.41635132 -0.33219549
v 0.54793084 -6.41635132 -0.33219549
v 0.54793084 -6.41635132 -0.33219549
v 0.54793084 -6.41635132 -0.33219549
v 0.63117468 -6.41635132 -0.02152524
v 0.63117468 -6.41635132 -0.02152524
v 0.63117468 -6.41635132 -0.02152524
v 0.54793084 -6.41635132 0.28914502
v 0.54793084 -6.41635132 0.28914502
v 0.54793084 -6.41635132 0.28914502
v 0.54793084 -6.41635132 0.28914502
v 0.32050443 -6.41635132 0.51657140
v 0.32050443 -6.41635132 0.51657140
v 0.32050443 -6.41635132 0.51657140
v 0.00983415 -6.41635132 0.59981525
v 0.00983415 -6.41635132 0.59981525
v 0.00983415 -6.41635132 0.59981525
v 0.00983415 -6.41635132 0.59981525
v -0.30083609 -6.41635132 0.51657140
v -0.30083609 -6.41635132 0.51657140
v -0.30083609 -6.41635132 0.51657140
v -0.52826250 -6.41635132 0.28914502
v -0.52826250 -6.41635132 0.28914502
v -0.52826250 -6.41635132 0.28914502
v -0.52826250 -6.41635132 0.28914502
v -0.61150634 -6.41635132 -0.02152524
v -0.61150634 -6.41635132 -0.02152524
v -0.61150634 -6.41635132 -0.02152524
v -0.52826250 -6.41635132 -0.33219549
v -0.52826250 -6.41635132 -0.33219549
v -0.52826250 -6.41635132 -0.33219549
v -0.52826250 -6.41635132 -0.33219549
v -0.30083609 -6.41635132 -0.55962193
v -0.30083609 -6.41635132 -0.55962193
v -0.30083609 -6.41635132 -0.55962193
v 0.00983412 -6.04635906 -0.64286578
v 0.00983412 -6.04635906 -0.64286578
v 0.00983412 -6.04635906 -0.64286578
v 0.32050440 -6.04635906 -0.55962193
v 0.32050440 -6.04635906 -0.55962193
v 0.32050440 -6.04635906 -0.55962193
v 0.54793084 -6.04635906 -0.33219549
v 0.54793084 -6.04635906 -0.33219549
v 0.54793084 -6.04635906 -0.33219549
v 0.63117468 -6.04635906 -0.02152524
v 0.63117468 -6.04635906 -0.02152524
v 0.63117468 -6.04635906 -0.02152524
v 0.54793084 -6.04635906 0.28914502
v 0.54793084 -6.04635906 0.28914502
v 0.54793084 -6.04635906 0.28914502
v 0.32050440 -6.04635906 0.51657140
v 0.32050440 -6.04635906 0.51657140
v 0.32050440 -6.04635906 0.51657140
v 0.00983412 -6.04635906 0.59981525
v 0.00983412 -6.04635906 0.59981525
v 0.00983412 -6.04635906 0.59981525
v -0.30083612 -6.04635906 0.51657140
v -0.30083612 -6.04635906 0.51657140
v -0.30083612 -6.04635906 0.51657140
v -0.52826250 -6.04635906 0.28914502
v -0.52826250 -6.04635906 0.28914502
v -0.52826250 -6.04635906 0.28914502
v -0.61150634 -6.04635906 -0.02152524
v -0.61150634 -6.04635906 -0.02152524
v -0.61150634 -6.04635906 -0.02152524
v -0.52826250 -6.04635906 -0.33219549
v -0.52826250 -6.04635906 -0.33219549
v -0.52826250 -6.04635906 -0.33219549
v -0.30083612 -6.04635906 -0.55962193
v -0.30083612 -6.04635906 -0.55962193
v -0.30083612 -6.04635906 -0.55962193
f 290 8 13
f 290 13 293
f 294 15 21
f 294 21 297
f 298 23 27
f 298 27 301
f 302 28 36
f 302 36 306
f 305 34 43
f 305 43 308
f 307 41 51
f 307 51 310
f 309 48 55
f 309 55 315
f 314 53 63
f 314 63 320
f 318 61 69
f 318 69 322
f 321 68 76
f 321 76 324
f 42 33 102
f 42 102 108
f 326 78 81
f 326 81 328
f 329 83 5
f 329 5 289
f 17 24 473
f 17 473 470
f 285 243 144
f 285 144 147
f 35 26 100
f 35 100 104
f 6 84 131
f 6 131 85
f 12 7 88
f 12 88 90
f 25 22 96
f 25 96 99
f 82 79 127
f 82 127 129
f 20 14 92
f 20 92 94
f 77 70 121
f 77 121 125
f 71 62 117
f 71 117 122
f 64 54 113
f 64 113 119
f 56 49 109
f 56 109 115
f 50 40 106
f 50 106 112
f 159 153 188
f 282 247 169
f 282 169 173
f 280 250 157
f 280 157 163
f 275 286 148
f 275 148 152
f 270 284 175
f 270 175 177
f 265 255 136
f 265 136 138
f 264 278 161
f 264 161 167
f 259 273 150
f 259 150 156
f 254 272 179
f 254 179 133
f 241 267 140
f 241 140 142
f 248 262 165
f 248 165 170
f 251 257 154
f 251 154 160
f 116 110 217
f 116 217 215
f 145 143 191
f 174 171 181
f 164 158 186
f 151 146 192
f 178 176 183
f 137 135 187
f 168 162 184
f 155 149 190
f 134 180 185
f 141 139 189
f 172 166 182
f 103 98 232
f 103 232 212
f 130 128 223
f 130 223 205
f 89 87 204
f 89 204 198
f 120 114 213
f 120 213 195
f 107 101 210
f 107 210 240
f 86 132 207
f 86 207 201
f 93 91 200
f 93 200 234
f 124 118 193
f 124 193 226
f 111 105 238
f 111 238 220
f 126 123 225
f 126 225 221
f 97 95 236
f 97 236 231
f 219 237 258
f 219 258 252
f 228 194 261
f 228 261 246
f 233 199 268
f 233 268 242
f 202 208 271
f 202 271 253
f 239 209 274
f 239 274 260
f 196 214 277
f 196 277 263
f 197 203 256
f 197 256 266
f 206 224 283
f 206 283 269
f 211 230 288
f 211 288 276
f 216 218 249
f 216 249 279
f 222 227 245
f 222 245 281
f 229 235 244
f 229 244 287
f 429 424 382
f 429 382 390
f 419 416 385
f 419 385 375
f 65 321 324
f 65 324 73
f 58 318 322
f 58 322 66
f 449 447 370
f 449 370 365
f 442 438 355
f 438 351 355
f 38 307 310
f 38 310 46
f 32 305 308
f 32 308 39
f 392 399 344
f 392 344 342
f 397 391 341
f 397 341 332
f 11 294 297
f 11 297 19
f 3 290 293
f 3 293 10
f 337 347 350
f 337 350 340
f 333 343 346
f 333 346 336
f 404 395 331
f 404 331 335
f 410 408 339
f 410 339 348
f 400 411 349
f 400 349 345
f 406 403 334
f 406 334 338
f 354 364 368
f 354 368 358
f 352 361 366
f 352 366 357
f 446 453 359
f 446 359 369
f 455 443 360
f 443 356 360
f 458 451 367
f 458 367 362
f 440 459 363
f 440 363 353
f 380 389 381
f 380 381 372
f 374 384 387
f 374 387 377
f 432 421 379
f 421 376 379
f 417 427 388
f 417 388 386
f 434 431 371
f 431 378 371
f 425 436 373
f 425 373 383
f 30 24 405
f 30 405 407
f 299 303 412
f 299 412 401
f 304 31 409
f 304 409 413
f 24 17 396
f 24 396 405
f 18 296 394
f 18 394 398
f 295 300 402
f 295 402 393
f 292 4 435
f 292 435 423
f 1 80 430
f 1 430 433
f 325 327 426
f 325 426 415
f 80 75 420
f 80 420 430
f 72 323 414
f 72 414 418
f 330 291 422
f 330 422 428
f 47 312 457
f 47 457 439
f 311 316 450
f 311 450 456
f 60 52 441
f 60 441 454
f 317 57 452
f 317 452 444
f 52 45 437
f 52 437 441
f 313 319 445
f 313 445 448
f 479 481 523
f 479 523 521
f 75 80 499
f 75 499 496
f 9 16 469
f 9 469 466
f 67 74 495
f 67 495 492
f 59 67 492
f 59 492 488
f 52 60 489
f 52 489 485
f 45 52 485
f 45 485 483
f 37 44 482
f 37 482 480
f 29 37 480
f 29 480 476
f 24 30 477
f 24 477 473
f 80 1 461
f 80 461 499
f 2 9 466
f 2 466 462
f 522 524 566
f 522 566 562
f 467 472 514
f 467 514 509
f 494 498 540
f 494 540 536
f 484 486 528
f 484 528 526
f 471 474 516
f 471 516 513
f 497 501 543
f 497 543 539
f 460 465 507
f 460 507 502
f 487 490 532
f 487 532 529
f 475 478 520
f 475 520 517
f 500 463 505
f 500 505 542
f 464 468 510
f 464 510 506
f 491 493 535
f 491 535 533
f 572 577 619
f 572 619 614
f 512 515 555
f 512 555 552
f 534 537 581
f 534 581 578
f 525 527 571
f 525 571 567
f 515 519 559
f 515 559 555
f 538 541 585
f 538 585 582
f 504 508 548
f 504 548 546
f 527 531 575
f 527 575 571
f 518 522 562
f 518 562 558
f 541 503 545
f 541 545 585
f 508 511 551
f 508 551 548
f 530 534 578
f 530 578 574
f 590 593 637
f 590 637 634
f 563 568 610
f 563 610 605
f 554 556 598
f 554 598 596
f 576 579 621
f 576 621 618
f 565 570 612
f 565 612 607
f 557 561 603
f 557 603 599
f 580 583 625
f 580 625 622
f 547 549 591
f 547 591 589
f 569 573 615
f 569 615 611
f 560 564 606
f 560 606 602
f 584 544 586
f 584 586 626
f 550 553 595
f 550 595 592
f 668 631 672
f 668 672 704
f 616 620 660
f 616 660 656
f 604 608 650
f 604 650 648
f 594 597 641
f 594 641 638
f 620 623 663
f 620 663 660
f 609 613 653
f 609 653 651
f 597 601 645
f 597 645 641
f 624 627 667
f 624 667 664
f 588 590 634
f 588 634 630
f 613 617 657
f 613 657 653
f 600 604 648
f 600 648 644
f 627 587 629
f 627 629 667
f 703 671 675
f 675 678 681
f 681 684 687
f 687 689 691
f 691 694 697
f 697 700 703
f 703 675 681
f 681 687 691
f 691 697 703
f 681 691 703
f 632 636 677
f 632 677 673
f 659 661 698
f 659 698 696
f 647 649 688
f 647 688 686
f 635 640 680
f 635 680 676
f 662 666 702
f 662 702 699
f 652 654 692
f 652 692 690
f 639 642 682
f 639 682 679
f 665 669 705
f 665 705 701
f 628 633 674
f 628 674 670
f 655 658 695
f 655 695 693
f 643 646 685
f 643 685 683

